<svg xmlns="http://www.w3.org/2000/svg" xmlns:xlink="http://www.w3.org/1999/xlink" id="Layer_1" x="0px" y="0px" viewBox="0 0 250 56.1" style="enable-background:new 0 0 250 56.1;" xml:space="preserve">
<style type="text/css">
	.st0{fill:#111C4E;}
	.st1{fill:#BCBEC0;}
	.st2{fill:#BB9753;}
</style>
<g>
	<g>
		<path class="st0" d="M39.3,30.6c6.5,0,12.3,4.3,12.3,10.8c0,6.5-5.7,11.8-12.3,11.8H2.6V30.6H39.3z"></path>
		<path class="st0" d="M39.3,3.1c6.5,0,12.3,4.7,12.3,11.2S45.8,26,39.3,26H2.6v-23H39.3z"></path>
	</g>
	<polygon class="st1" points="29.5,19.2 29.5,12.8 56.5,28.2 29.5,43.5  "></polygon>
	<g>
		<path class="st0" d="M197.7,31.3c-0.9,0.1-2,0.1-3.4,0.1c-2,0-3.3-0.3-4-1c-0.7-0.7-0.9-1.8-0.5-3.5l2.6-12.7h-2.9l0.8-3.9h2.9    l1.2-5.6h5.5l-1.2,5.6h3.3l-0.8,3.9h-3.3L195.5,26c-0.1,0.4,0,0.7,0.3,1c0.3,0.2,0.8,0.3,1.5,0.3l1.3-0.1L197.7,31.3z M181.5,16.5    L181.5,16.5c0-1-0.2-1.7-0.7-2.1c-0.5-0.4-1.3-0.6-2.4-0.6c-1,0-1.9,0.2-2.5,0.5c-0.6,0.3-1,0.8-1.1,1.3c-0.1,0.5,0.1,0.9,0.7,1.3    c0.5,0.3,1.5,0.7,2.9,1c3.2,0.8,5.2,1.6,6.3,2.6c0.8,0.7,1.2,1.6,1.2,2.8c0,0.4-0.1,0.9-0.2,1.4c-0.5,2.2-1.6,3.9-3.6,5.2    c-1.9,1.3-4.3,1.9-7.2,1.9c-3.2,0-5.5-0.6-6.9-1.8c-1.2-1-1.8-2.4-1.8-4.2l0.1-1.3h5.6c-0.1,1.1,0.1,1.8,0.8,2.3    c0.7,0.5,1.8,0.8,3.3,0.8c1,0,1.8-0.2,2.5-0.6c0.6-0.4,1-0.9,1.2-1.6c0.1-0.5-0.1-0.9-0.7-1.3c-0.6-0.3-1.6-0.7-3.2-1.1    c-3.1-0.7-5.1-1.5-6.1-2.5c-0.7-0.7-1.1-1.6-1.1-2.7c0-0.4,0.1-0.9,0.2-1.4c0.4-2.1,1.5-3.8,3.3-5c1.8-1.2,4-1.8,6.5-1.8    c3,0,5.2,0.6,6.6,1.7c1.1,0.9,1.6,2.2,1.6,3.8c0,0.4,0,0.8-0.1,1.3H181.5z M159.7,18.5L159.7,18.5l0-0.7c0-1.2-0.3-2.1-0.9-2.7    c-0.6-0.6-1.4-0.9-2.6-0.9c-1.5,0-2.7,0.6-3.7,1.7c-0.6,0.7-1,1.5-1.4,2.6H159.7z M153,31.7c-2.7,0-4.8-0.6-6.3-1.9    c-1.5-1.3-2.2-3.1-2.2-5.6c0-0.5,0.1-1.1,0.1-1.7c0.1-0.6,0.2-1.2,0.3-1.8c0.7-3.5,2.2-6.2,4.3-8.2c2.2-2,4.8-2.9,7.9-2.9    c2.6,0,4.6,0.6,6,1.9c1.3,1.3,2,3.2,2,5.7c0,0.6,0,1.3-0.1,2c-0.1,0.7-0.2,1.4-0.4,2.2l-0.1,0.7h-14.3l0,0.3    c-0.1,0.4-0.1,0.7-0.1,1.1c0,1.3,0.3,2.2,1,2.9c0.6,0.6,1.6,1,2.9,1c0.9,0,1.8-0.2,2.6-0.6c0.8-0.4,1.3-0.9,1.6-1.6h5.6    c-1,2-2.4,3.7-4.4,4.8C157.5,31.1,155.3,31.7,153,31.7 M124.9,10.3L124.9,10.3h3.1h3.1l1.2,15.4h0l7.7-15.4h2.9h2.9l-11.9,20.9    H131h-2.9L124.9,10.3z M111.1,14.5c-1.4,0-2.7,0.6-3.8,1.7c-1.1,1.2-1.9,2.7-2.3,4.6c-0.1,0.4-0.2,0.8-0.2,1.3    c0,0.4-0.1,0.8-0.1,1.1c0,1.3,0.3,2.3,1,3c0.6,0.7,1.5,1.1,2.7,1.1c1.4,0,2.7-0.6,3.8-1.7c1.1-1.1,1.8-2.6,2.2-4.4    c0.4-2.1,0.4-3.7-0.2-4.9C113.7,15,112.6,14.5,111.1,14.5 M105.9,31.7c-2.1,0-3.8-0.7-5-2c-1.2-1.4-1.8-3.2-1.8-5.6    c0-0.6,0-1.2,0.1-2c0.1-0.7,0.2-1.4,0.3-2.1c0.6-3,1.9-5.4,3.9-7.4c2-2,4.2-2.9,6.7-2.9c2.7,0,4.5,1,5.6,3l0.1,0.2l2.1-10h2.7h2.8    l-5.8,28.3h-2.7h-2.8l0.5-2.4C110.6,30.8,108.4,31.7,105.9,31.7 M93.7,2.7h5.6l-1,5h-5.6L93.7,2.7z M87.7,31.2L92,10.3h2.7h2.8    l-4.3,20.9h-2.7H87.7z M68,18.8l-1.5,7.5h6.8c1.6,0,2.9-0.3,3.8-0.9s1.5-1.5,1.8-2.8c0.1-0.2,0.1-0.4,0.1-0.6c0-0.2,0-0.3,0-0.5    c0-0.9-0.3-1.6-0.9-2c-0.6-0.4-1.5-0.7-2.8-0.7H68z M70.2,7.9L69,14h6.9c1.4,0,2.4-0.2,3.2-0.7c0.8-0.5,1.3-1.3,1.5-2.3    c0-0.2,0-0.3,0.1-0.5c0-0.1,0-0.3,0-0.5c0-0.7-0.3-1.3-0.8-1.6c-0.6-0.3-1.4-0.5-2.6-0.5H70.2z M59.5,31.2l5.8-28.3h2.9h11    c2.3,0,4.1,0.5,5.4,1.5c1.2,1,1.9,2.4,1.9,4.2c0,0.3,0,0.7-0.1,1.1c0,0.4-0.1,0.8-0.2,1.1c-0.4,1.9-1.6,3.5-3.5,4.6    c-0.3,0.2-0.6,0.4-1,0.5c0.4,0.2,0.8,0.3,1.1,0.6c1.4,1,2.1,2.4,2.1,4.3c0,0.3,0,0.6-0.1,0.9c0,0.3-0.1,0.6-0.2,1    c-0.6,2.7-1.9,4.7-4.1,6.2c-2.2,1.5-4.9,2.3-8.2,2.3h-10H59.5z"></path>
		<path class="st2" d="M201.7,53.7V37.6h-2.9v8.9c0,0.7,0,1.6,0,2.3h0c-0.4-0.7-0.8-1.3-1.6-2.2l-7-9h-3v16.1h3v-9.5    c0-0.8,0-1.6-0.1-2.1h0c0.4,0.7,0.9,1.3,1.6,2.2l7.3,9.4H201.7z M183.9,37.6h-3v16.1h3V37.6z M175.2,45.7c0,3.6-2.1,5.8-5.1,5.8    c-3,0-5.1-2.2-5.1-5.8c0-3.6,2.1-5.8,5.1-5.8C173.2,39.9,175.2,42.2,175.2,45.7 M178.4,45.7c0-2.2-0.7-4.2-2-5.7    c-1.4-1.6-3.6-2.5-6.2-2.5c-2.4,0-4.5,0.9-5.9,2.3c-1.5,1.5-2.3,3.6-2.3,6c0,2.5,0.9,4.7,2.5,6.1c1.4,1.3,3.3,2,5.7,2    c2.4,0,4.4-0.9,5.9-2.3C177.6,50.2,178.4,48,178.4,45.7 M160.5,52.4l-0.8-2.1c-1.2,0.7-2.5,1.1-4,1.1c-3.3,0-5.4-2.5-5.4-5.8    c0-3,1.9-5.7,5.6-5.7c1.4,0,2.7,0.3,4.1,1.1l0-2.7c-1-0.5-2.5-0.9-4.2-0.9c-5.3,0-8.7,3.7-8.7,8.3c0,4.6,3,8.1,8.1,8.1    C157,53.9,158.7,53.5,160.5,52.4 M134.6,47.3h-3.9l1.4-3.7c0.3-0.8,0.5-1.4,0.6-2h0c0.1,0.5,0.3,1.2,0.6,2L134.6,47.3z     M140.3,53.7l-6.5-16.2h-2.1l-6.2,16.2h2.9l1.5-4h5.7l1.6,4H140.3z M124.2,53.7v-2.5h-6v-4.5h5.2v-2.5h-5.2v-4.1h5.2l0.8-2.5h-9    v16.1H124.2z M113.5,37.6h-12.7v2.5h4.7v13.6h3V40.1h4.4L113.5,37.6z M97.2,45.7c0,3.6-2.1,5.8-5.1,5.8c-3,0-5.1-2.2-5.1-5.8    c0-3.6,2.1-5.8,5.1-5.8C95.2,39.9,97.2,42.2,97.2,45.7 M100.4,45.7c0-2.2-0.7-4.2-2-5.7c-1.4-1.6-3.6-2.5-6.2-2.5    c-2.4,0-4.5,0.9-5.9,2.3c-1.5,1.5-2.3,3.6-2.3,6c0,2.5,0.9,4.7,2.5,6.1c1.4,1.3,3.3,2,5.7,2c2.4,0,4.4-0.9,5.9-2.3    C99.6,50.2,100.4,48,100.4,45.7 M78.8,42.5c0,1.5-1.1,2.6-2.7,2.6h-1.5v-5h1.5C78,40.1,78.8,41.2,78.8,42.5 M83.6,53.7    c-2.5-4.1-4.1-6.9-4.8-7.3v0c1.5-0.6,3-2.1,3-4.2c0-2.5-1.6-4.5-5.7-4.5h-4.3v16.1h3v-6.3H76c0.6,0.2,1.7,2.2,4.2,6.3H83.6z     M66.4,42.9c0,1.8-1,2.9-3.1,2.9h-0.9v-5.6h0.9C65.4,40.1,66.4,41.3,66.4,42.9 M69.4,42.8c0-3.4-2.3-5.2-5.8-5.2h-4.1v16.1h3v-5.6    h0.8C67.8,48.1,69.4,45,69.4,42.8"></path>
		<path class="st2" d="M232.8,15.4v0.2c0,0.6,0.9,0.9,1.4,1.2c0.5,0.4,0.8,0.9,1.2,1.5c0.5,0.9,0.9,2.9,0.9,4.4    c0.4-0.3,0.8-2.5,0.8-3.3v-0.7c0-1.8-1.3-4.3-3-4.3C233.3,14.3,232.8,14.8,232.8,15.4"></path>
		<path class="st2" d="M219.7,18.7v0.7c0,0.9,0.4,2.9,0.8,3.3c0-1.6,0.3-3.3,0.9-4.4c0.3-0.6,0.6-1.1,1.1-1.5    c0.4-0.3,1.4-0.6,1.4-1.2v-0.3c0-0.5-0.6-0.9-1.1-0.9C220.9,14.3,219.7,16.8,219.7,18.7"></path>
		<path class="st2" d="M217.1,19.9v0.3c0,1.4,1.2,2.9,2.1,3.5c-0.1-0.2-0.4-0.9-0.5-1.2c-0.1-0.2-0.3-1.1-0.3-1.4v-0.1    c0-1,0.6-1.6,0.6-1.9c0-0.4-0.2-0.7-0.6-0.7h-0.2C217.6,18.3,217.1,19.3,217.1,19.9"></path>
		<path class="st2" d="M237.7,18.9L237.7,18.9c0,0.4,0.6,0.9,0.6,1.7V21c0,1.1-0.6,1.8-0.8,2.6c0.7-0.5,2-2,2-3.2v-0.7    c0-0.4-0.5-1.4-1-1.4h-0.2C238,18.3,237.7,18.6,237.7,18.9"></path>
		<path class="st2" d="M213.2,26.2v0.3c0,2.3,1.9,5.3,3.3,6.2c-0.1-0.3-0.3-0.8-0.4-1c-0.1-0.4-0.2-0.7-0.3-1.1    c-0.2-0.6-0.4-1.7-0.4-2.5v-0.6c0-1.8,1.4-2.9,1.4-3.5v-0.1c0-0.5-0.6-1.1-1.2-1.1h-0.2C214,22.8,213.2,24.8,213.2,26.2"></path>
		<path class="st2" d="M229.2,18.3v0.3c0,0.6,0.3,0.7,0.6,1c0.3,0.2,0.6,0.5,0.9,0.7c0.4,0.3,1.2,1.2,1.5,1.7c0.8,1.1,1.5,3,1.5,4.9    v0.8c0,1.1-0.4,2.8-0.6,3.7c-0.1,0.5-0.3,1.2-0.5,1.7c-0.1,0.4-0.5,1.3-0.6,1.6c0.5-0.4,1.8-3.2,2.1-4.1c0.5-1.3,1-3.3,1-5.2v-0.2    c0-2-0.6-3.6-1.2-4.9c-0.4-0.8-2.2-2.9-3.3-2.9h-0.4C229.8,17.3,229.2,17.9,229.2,18.3"></path>
		<path class="st2" d="M239.9,24L239.9,24c0,0.5,0.7,1.3,1,1.8c0.3,0.6,0.5,1.3,0.5,2.2v0.3c0,0.6-0.2,2-0.4,2.4    c-0.1,0.4-0.2,0.8-0.3,1.1c-0.1,0.3-0.3,0.8-0.4,1c1.4-0.9,3.3-4,3.3-6.3v-0.3c0-1.3-0.9-3.3-2.1-3.3h-0.4    C240.5,22.8,239.9,23.4,239.9,24"></path>
		<path class="st2" d="M221.6,24.6v0.8c0,1.1,0.1,1.8,0.3,2.7c0.2,1,0.5,1.6,0.7,2.4c0.2,0.7,1.7,3.7,2.1,4    c-0.1-0.4-0.5-1.1-0.6-1.5c-0.2-0.5-0.4-1.1-0.5-1.7c-0.2-1.3-0.6-2.2-0.6-3.8v-1.2c0-1.5,0.8-3.6,1.5-4.5    c0.4-0.6,0.9-1.2,1.4-1.6c0.4-0.3,1.5-1,1.5-1.5v-0.5c0-0.4-0.5-0.9-0.9-0.9h-0.2c-1.3,0-2.7,1.8-3.3,2.6    C222.3,20.9,221.6,23,221.6,24.6"></path>
		<path class="st2" d="M216.2,35.2v-0.4c0-0.2-0.2-0.8-0.3-1c-0.2-0.3-0.3-0.5-0.6-0.7c-0.3-0.3-1.2-0.9-1.6-1    C214,33.2,214.8,35.1,216.2,35.2"></path>
		<path class="st2" d="M240.4,34.7v0.4c0.8,0,1.4-0.6,1.7-1.1c0.2-0.3,0.8-1.6,0.8-2C242.1,32.2,240.4,33.5,240.4,34.7"></path>
		<path class="st2" d="M235.4,31c0,2.3-2.4,4.1-3.6,5.2c1.1,0,3.2-1.3,3.8-1.9c0.8-0.8,2.1-2.1,2.1-3.7c0-0.8-0.4-1.6-1.2-1.6h-0.1    C235.1,29,235.4,30,235.4,31"></path>
		<path class="st2" d="M216.6,35v0.3c0,0.7,0.4,1.4,0.8,1.7c0.2-0.4,0.5-0.8,0.5-1.4v-0.1c0-0.6-0.1-0.9-0.3-1.3    c-0.1-0.3-0.5-0.9-0.6-1.1H217C216.9,33.6,216.6,34.3,216.6,35"></path>
		<path class="st2" d="M238.7,35.4c0,0.4,0,0.7,0.1,0.9c0.1,0.3,0.3,0.6,0.4,0.7c0.5-0.3,0.8-1,0.8-1.7c0-0.4-0.1-0.9-0.1-1.2    c-0.1-0.3-0.3-0.9-0.3-1.1C239.3,33.3,238.7,34.7,238.7,35.4"></path>
		<path class="st2" d="M218.9,30.4v0.2c0,1.4,1.3,2.8,2.1,3.6c0.6,0.6,2.7,1.9,3.8,1.9c-1.2-1-3.6-2.9-3.6-5.1l0-0.3l0.1-0.7    c0.1-0.5-0.4-1.1-0.8-1.1h-0.3C219.4,29,218.9,29.7,218.9,30.4"></path>
		<path class="st2" d="M226.8,28.8l-1.6-0.2c-0.2,0-0.4,0.2-0.4,0.4v1.6c0,0.1,0,0.1,0.1,0.1h0.1c0.8,0,1.6-0.3,2.3-0.4V34    c0,0.1-0.6,0.6-0.6,1.4c0,0.9,0.7,1.6,1.6,1.6c0.9,0,1.7-0.8,1.7-1.6c0-0.8-0.6-1.3-0.6-1.4l0-3.5l2.2,0.4h0.1    c0.1,0,0.1,0,0.1-0.1v-1.8c0-0.1-0.2-0.3-0.3-0.3l-0.1,0l-1.5,0.2v-2.6c0-0.8-0.1-2.7-0.3-3.3c-0.3-1-0.5-1.8-1.3-2.3    C226.6,21.7,226.8,25.7,226.8,28.8 M227.6,24c0-0.8,0.3-2.4,0.7-2.7v7.7c-0.2,0-0.7,0-0.7-0.2V24z M225.4,29.3    c0.8,0,2.5,0.4,3.1,0.3l2.9-0.4l0,0.9c-0.7,0-2.4-0.5-2.9-0.4l-3,0.4V29.3z M228.9,30.5l0.2,0.1l0,3.2c0,0.7,0.6,0.8,0.6,1.5v0.2    c0,0.2,0,0.2-0.1,0.2c0-0.7-0.3-1.3-0.8-1.5V30.5z M227.3,35.3c0-0.5,0.5-1,1-1c-0.3,0.4-0.4,0.5-0.4,1.2c0,0.5,0.3,0.6,0.3,0.9    c-0.5,0-0.9-0.4-0.9-0.9V35.3z"></path>
		<path class="st2" d="M216.7,37.7h0.6c-0.1-1.2-1.9-2.4-3.3-2.4C214.5,36.1,215.6,37.7,216.7,37.7"></path>
		<path class="st2" d="M239.3,37.7h0.6c1,0,2.5-1.7,2.7-2.4c-0.7,0-1.7,0.4-2.1,0.7C239.9,36.4,239.5,37,239.3,37.7"></path>
		<path class="st2" d="M218,37.1l0,0.3c0,0.7,0.4,1.9,1,1.9c0.1-0.4,0.3-0.5,0.3-1.2V38c0-0.9-0.6-2.2-1.1-2.5L218,37.1z"></path>
		<path class="st2" d="M237.3,38L237.3,38c0,0.9,0.2,0.9,0.3,1.4c0.6,0,1-1.2,1-1.9l0-0.3l-0.3-1.7C237.9,35.7,237.3,37.1,237.3,38"></path>
		<path class="st2" d="M235.2,39.9l0,0.6l0.1,0.4c1.2,0,1.8-2.1,1.8-3.6C236.4,37.8,235.2,39.1,235.2,39.9"></path>
		<path class="st2" d="M237.6,39.8c0.1,0.2,0.5,0.2,0.7,0.2h0.1c1,0,2.6-1.1,2.9-1.6l-0.9-0.1C239,38.2,238.1,39,237.6,39.8"></path>
		<path class="st2" d="M215.3,38.4c0.4,0.5,2,1.6,2.9,1.6c0.3,0,0.7-0.1,0.9-0.2c-0.2-0.8-1.7-1.6-2.9-1.5L215.3,38.4z"></path>
		<path class="st2" d="M221.4,41c0-0.2,0.1-0.3,0.1-0.6v-0.1c0-0.7-0.3-1.3-0.6-1.7c-0.2-0.2-1-1.1-1.2-1.1    C219.6,38.9,220.2,41,221.4,41"></path>
		<path class="st2" d="M216.7,28.5v0.3c0,3.3,2.4,6.2,4,7.9c0.5,0.5,1.1,1,1.6,1.3c0.3,0.2,0.6,0.4,0.9,0.6c0.3,0.2,0.7,0.4,0.9,0.6    c0.6,0.5,0.8,1,1.6,1.4c0.7,0.4,1.4,0.7,2.4,0.7h0.7c1.6,0,2.9-1.2,3.7-2c0.2-0.2,1.4-0.9,1.7-1.1c0.6-0.4,1.1-0.8,1.6-1.3    c0.6-0.5,2.2-2.4,2.6-3.2c0.6-1.2,1.4-2.7,1.4-4.4v-0.3c0-1.7-0.9-4.6-2.3-4.6h-0.1c-0.6,0-1.2,0.4-1.2,0.9v0.3    c0,0.6,2.5,1.8,2.5,4.6v0.7c0,1.2-0.7,2.5-1.2,3.3c-0.5,0.8-1.5,1.7-2.3,2.2c-1.6,1.1-4.2,2.1-6.9,2.1c-2.4,0-5.4-1-6.8-2.1    c-1-0.7-1.6-1.1-2.3-2.2c-0.5-0.7-1.2-2.1-1.2-3.3v-1c0-0.7,0.6-2.1,1-2.5c0.5-0.5,1.5-1.2,1.5-2v-0.1c0-0.5-0.6-0.9-1.2-0.9    C217.9,24.3,216.7,26.9,216.7,28.5"></path>
		<path class="st2" d="M217.5,41.1L217.5,41.1c0.5,0.1,1.5,0.9,2.5,0.9h0.1c0.5,0,1.1-0.2,1.3-0.5c-0.2-0.4-1.1-0.8-1.7-0.8h-0.4    C218.7,40.6,218.1,40.9,217.5,41.1"></path>
		<path class="st2" d="M224.1,41.9h0.1v-0.1c0-1.3-1.7-2.5-2.8-2.7c0,0.5,0.7,1.5,0.9,1.8C222.7,41.4,223.3,41.9,224.1,41.9"></path>
		<path class="st2" d="M235.1,41.4c0.2,0.3,0.8,0.5,1.3,0.5c1.3,0,1.8-0.6,2.7-0.8v-0.1c-0.5-0.1-1.1-0.4-1.8-0.4h-0.4    C236.2,40.6,235.3,41.1,235.1,41.4"></path>
		<path class="st2" d="M232.4,41.6v0.3h0.2c0.2,0,0.2,0,0.3,0c1.2-0.3,1.7-1.8,2.2-2.8C234.1,39.3,232.4,40.4,232.4,41.6"></path>
		<path class="st2" d="M232.7,42l0.3-0.1l0,0C232.8,41.9,232.8,41.9,232.7,42l-0.2-0.1v-0.3l0,0.4L232.7,42z"></path>
		<path class="st2" d="M220.7,42.9L220.7,42.9c0.4,0.1,1,0.3,1.3,0.3h1c0.7,0,1.4-0.5,1.6-0.9c-0.3-0.2-0.8-0.4-1.2-0.4h-0.5    c-0.4,0-0.9,0.2-1.2,0.4C221.5,42.4,220.7,42.8,220.7,42.9"></path>
		<path class="st2" d="M232.7,42l-0.7,0.3c0.3,0.4,1,0.9,1.7,0.9h0.8c0.5,0,1.1-0.2,1.5-0.2c-0.1-0.2-0.9-0.7-1.2-0.8    c-0.5-0.2-1-0.3-1.8-0.3L232.7,42z"></path>
		<path class="st2" d="M224.1,44c1.4,0,3.5-0.8,3.5-2h-1C225.7,42.1,224.4,43.4,224.1,44"></path>
		<path class="st2" d="M229,42.1c0,1.2,2.2,2,3.5,2c-0.4-0.8-1.6-2-2.8-2h-0.4C229.2,42,229.1,42,229,42.1"></path>
		<path class="st2" d="M229.4,9.7h-1.8c0,0-1.9,0.2-2.1,0.2c-0.5,0-1.4,0.3-1.9,0.4c-1.1,0.3-2.4,0.7-3.4,1.2c-2,1-3.9,2.2-5.4,3.7    c-1.6,1.6-2.8,3.2-3.8,5.3c-0.9,1.7-1.9,4.8-1.9,7.3v2c0,2.5,1.1,5.6,1.9,7.3c1.1,2.2,2.3,3.7,3.9,5.3c2.6,2.7,7.7,5.4,13.1,5.4    h1.1c2.6,0,5.5-0.9,7.3-1.7c2-0.9,4-2.2,5.4-3.7c0.7-0.7,1.6-1.6,2.1-2.4c0.3-0.5,0.6-0.9,0.9-1.4c0.3-0.5,0.5-1,0.8-1.5    c0.8-1.3,1.9-5.1,1.9-7.2v-2.3c0-2.4-1.1-5.5-1.9-7.1c-1.1-2.1-2.2-3.7-3.8-5.3c-1.2-1.2-3.7-3.1-5.3-3.7c-0.5-0.2-1-0.4-1.6-0.7    c-0.6-0.2-1.2-0.3-1.7-0.5c-0.6-0.2-1.2-0.2-1.9-0.4C231.1,9.9,229.5,9.7,229.4,9.7 M211.2,28.2c0-4.7,2.6-9.2,5.1-11.5    c2.6-2.4,6.6-4.9,11.6-4.9h1c4.9,0,9,2.5,11.6,4.9c2.5,2.3,5,6.8,5,11.5v0.4c0,5.2-2.3,9.2-4.9,11.8c-1.1,1.1-3.4,2.8-5,3.4    c-1.9,0.8-4.1,1.6-6.8,1.6h-1.1c-0.8,0-3-0.3-3.6-0.5c-0.6-0.2-1.1-0.3-1.6-0.5c-0.5-0.2-0.9-0.4-1.4-0.6    c-1.7-0.7-3.6-2.2-4.9-3.4c-2.4-2.3-5-6.8-5-11.5V28.2z"></path>
	</g>
</g>
</svg>